# xmcd
#
# Track frame offsets: 
#        150
#        22596
#        42580
#        59122
#        73790
#        95490
#        119471
#        136957
#        155344
#        183528
#        200523
#        223173
#        237478
#        266419
#
# Disc length: 3827 seconds
#
# Revision: 1
# Processed by: cddbd v1.5.2PL0 Copyright (c) Steve Scherf et al.
# Submitted via: ExactAudioCopyFreeDBPlugin 1.0
#
DISCID=d50ef10e
DTITLE=Shirley Johnson - Blues Attack
DYEAR=2009
DGENRE=Blues
TTITLE0=You're Reckless
TTITLE1=Blues Attack
TTITLE2=My Baby Played Me For A Fool
TTITLE3=634-5789
TTITLE4=Just Like That
TTITLE5=You Shouldn't Have Been There
TTITLE6=I'm Going To Find Me A Lover
TTITLE7=Felt So Good
TTITLE8=Unchain My Heart
TTITLE9=Selfish Kind Of Gal
TTITLE10=Take Your Foor Off My Back
TTITLE11=Lost And Alone
TTITLE12=Let It Rain
TTITLE13=You Just Using Me
EXTD=
EXTT0=
EXTT1=
EXTT2=
EXTT3=
EXTT4=
EXTT5=
EXTT6=
EXTT7=
EXTT8=
EXTT9=
EXTT10=
EXTT11=
EXTT12=
EXTT13=
PLAYORDER=
